{
  "accessors": [
    {
      "bufferView": 2,
      "componentType": 5126,
      "count": 65532,
      "max": [
        10.751838684082031,
        3.4157111644744873,
        14.492198944091797
      ],
      "min": [
        -5.235779285430908,
        -7.795620918273926,
        3.1335039138793945
      ],
      "type": "VEC3"
    },
    {
      "bufferView": 2,
      "byteOffset": 786384,
      "componentType": 5126,
      "count": 65532,
      "max": [
        0.9999350309371948,
        0.999980092048645,
        0.9555959105491638
      ],
      "min": [
        -0.9998700618743896,
        -0.9999579191207886,
        -0.9999992847442627
      ],
      "type": "VEC3"
    },
    {
      "bufferView": 1,
      "componentType": 5126,
      "count": 65532,
      "max": [
        0.9910506010055542,
        0.9736337661743164
      ],
      "min": [
        0.0006057582795619965,
        0.001191888004541397
      ],
      "type": "VEC2"
    },
    {
      "bufferView": 0,
      "componentType": 5125,
      "count": 361545,
      "type": "SCALAR"
    },
    {
      "bufferView": 2,
      "byteOffset": 1572768,
      "componentType": 5126,
      "count": 65532,
      "max": [
        11.194795608520508,
        5.230259895324707,
        14.63217544555664
      ],
      "min": [
        -7.127543926239014,
        -12.854859352111816,
        -3.8956069946289063
      ],
      "type": "VEC3"
    },
    {
      "bufferView": 2,
      "byteOffset": 2359152,
      "componentType": 5126,
      "count": 65532,
      "max": [
        0.9998410940170288,
        0.9999806880950928,
        0.9996572732925415
      ],
      "min": [
        -0.9999954700469971,
        -0.9999868869781494,
        -0.9999998807907104
      ],
      "type": "VEC3"
    },
    {
      "bufferView": 1,
      "byteOffset": 524256,
      "componentType": 5126,
      "count": 65532,
      "max": [
        0.9910506010055542,
        0.9999943971633911
      ],
      "min": [
        0.00015397369861602783,
        0.00022628158330917358
      ],
      "type": "VEC2"
    },
    {
      "bufferView": 0,
      "byteOffset": 1446180,
      "componentType": 5125,
      "count": 351282,
      "type": "SCALAR"
    },
    {
      "bufferView": 2,
      "byteOffset": 3145536,
      "componentType": 5126,
      "count": 27966,
      "max": [
        6.419500350952148,
        5.257424354553223,
        14.599397659301758
      ],
      "min": [
        -4.699956893920898,
        -12.287199974060059,
        -1.7568988800048828
      ],
      "type": "VEC3"
    },
    {
      "bufferView": 2,
      "byteOffset": 3481128,
      "componentType": 5126,
      "count": 27966,
      "max": [
        0.9999938011169434,
        0.999893069267273,
        0.9969505071640015
      ],
      "min": [
        -0.9999265670776367,
        -0.9999088048934937,
        -0.9999910593032837
      ],
      "type": "VEC3"
    },
    {
      "bufferView": 1,
      "byteOffset": 1048512,
      "componentType": 5126,
      "count": 27966,
      "max": [
        0.9838290810585022,
        0.9904782772064209
      ],
      "min": [
        0.00946769118309021,
        0.0019124560058116913
      ],
      "type": "VEC2"
    },
    {
      "bufferView": 0,
      "byteOffset": 2851308,
      "componentType": 5125,
      "count": 112761,
      "type": "SCALAR"
    }
  ],
  "asset": {
    "extras": {
      "author": "symension123 (https://sketchfab.com/symension123)",
      "license": "CC-BY-4.0 (http://creativecommons.org/licenses/by/4.0/)",
      "source": "https://sketchfab.com/3d-models/hunt-park-large-tree-b3cc8f7f3cd0495ea3a8ddfae3902921",
      "title": "Hunt Park Large Tree"
    },
    "generator": "Sketchfab-12.79.0",
    "version": "2.0"
  },
  "bufferViews": [
    {
      "buffer": 0,
      "byteLength": 3302352,
      "name": "floatBufferViews",
      "target": 34963
    },
    {
      "buffer": 0,
      "byteLength": 1272240,
      "byteOffset": 3302352,
      "byteStride": 8,
      "name": "floatBufferViews",
      "target": 34962
    },
    {
      "buffer": 0,
      "byteLength": 3816720,
      "byteOffset": 4574592,
      "byteStride": 12,
      "name": "floatBufferViews",
      "target": 34962
    }
  ],
  "buffers": [
    {
      "byteLength": 8391312,
      "uri": "scene.bin"
    }
  ],
  "images": [
    {
      "uri": "textures/material0.003_baseColor.jpeg"
    }
  ],
  "materials": [
    {
      "doubleSided": true,
      "name": "material0.003",
      "pbrMetallicRoughness": {
        "baseColorTexture": {
          "index": 0
        },
        "roughnessFactor": 0.8030500664382977
      }
    }
  ],
  "meshes": [
    {
      "name": "Object_0",
      "primitives": [
        {
          "attributes": {
            "NORMAL": 1,
            "POSITION": 0,
            "TEXCOORD_0": 2
          },
          "indices": 3,
          "material": 0,
          "mode": 4
        }
      ]
    },
    {
      "name": "Object_1",
      "primitives": [
        {
          "attributes": {
            "NORMAL": 5,
            "POSITION": 4,
            "TEXCOORD_0": 6
          },
          "indices": 7,
          "material": 0,
          "mode": 4
        }
      ]
    },
    {
      "name": "Object_2",
      "primitives": [
        {
          "attributes": {
            "NORMAL": 9,
            "POSITION": 8,
            "TEXCOORD_0": 10
          },
          "indices": 11,
          "material": 0,
          "mode": 4
        }
      ]
    }
  ],
  "nodes": [
    {
      "children": [
        1
      ],
      "matrix": [
        1.0,
        0.0,
        0.0,
        0.0,
        0.0,
        2.220446049250313e-16,
        -1.0,
        0.0,
        0.0,
        1.0,
        2.220446049250313e-16,
        0.0,
        0.0,
        0.0,
        0.0,
        1.0
      ],
      "name": "Sketchfab_model"
    },
    {
      "children": [
        2
      ],
      "name": "root"
    },
    {
      "children": [
        3
      ],
      "matrix": [
        1.0,
        0.0,
        0.0,
        0.0,
        0.0,
        2.220446049250313e-16,
        1.0,
        0.0,
        0.0,
        -1.0,
        2.220446049250313e-16,
        0.0,
        0.0,
        0.0,
        0.0,
        1.0
      ],
      "name": "GLTF_SceneRootNode"
    },
    {
      "children": [
        4,
        5,
        6
      ],
      "matrix": [
        0.9291408734288049,
        6.708833183433072e-09,
        -0.36972589485179097,
        0.0,
        0.3676525825644673,
        0.10575420670204183,
        0.9239305310998762,
        0.0,
        0.03910007490574949,
        -0.9943923007368982,
        0.09826055351738572,
        0.0,
        -0.09168481826782227,
        14.918920516967773,
        -0.11642694473266602,
        1.0
      ],
      "name": "Model_0"
    },
    {
      "mesh": 0,
      "name": "Object_4"
    },
    {
      "mesh": 1,
      "name": "Object_5"
    },
    {
      "mesh": 2,
      "name": "Object_6"
    }
  ],
  "samplers": [
    {
      "magFilter": 9729,
      "minFilter": 9987,
      "wrapS": 10497,
      "wrapT": 10497
    }
  ],
  "scene": 0,
  "scenes": [
    {
      "name": "Sketchfab_Scene",
      "nodes": [
        0
      ]
    }
  ],
  "textures": [
    {
      "sampler": 0,
      "source": 0
    }
  ]
}
